<?xml version="1.0" encoding="UTF-8" standalone="no"?>
<svg
   viewBox="0 0 1000 220"
   width="1000"
   height="220"
   role="img"
   aria-label="Guildframe primary logo Color"
   version="1.1"
   id="svg4"
   sodipodi:docname="Guildframe_Primary_Horizontal_Color_raw.svg"
   xmlns:inkscape="http://www.inkscape.org/namespaces/inkscape"
   xmlns:sodipodi="http://sodipodi.sourceforge.net/DTD/sodipodi-0.dtd"
   xmlns="http://www.w3.org/2000/svg"
   xmlns:svg="http://www.w3.org/2000/svg">
  <defs
     id="defs4" />
  <sodipodi:namedview
     id="namedview4"
     pagecolor="#ffffff"
     bordercolor="#000000"
     borderopacity="0.25"
     inkscape:showpageshadow="2"
     inkscape:pageopacity="0.0"
     inkscape:pagecheckerboard="0"
     inkscape:deskcolor="#d1d1d1" />
  <title
     id="title1">Guildframe primary logo Color</title>
  <g
     transform="translate(18 0) scale(1.0)"
     id="g3">
    <path
       d="M153 0 L24 0 L0 24 L0 116 L32 143 L62 163 L77 178 L96 161 L95 58 L55 58 L55 87 L70 88 L71 124 L69 134 L35 110 L30 104 L30 33 L32 31 L173 31 L173 19 Z"
       fill="#1657FF"
       id="path1" />
    <path
       d="M173 58 L106 58 L106 177 L86 193 L104 211 L131 191 L131 147 L161 128 L161 113 L131 112 L131 88 L133 86 L172 87 Z"
       fill="#0F1419"
       id="path2" />
    <path
       d="M62 181 L62 196 L92 219 L95 215 Z"
       fill="#0F1419"
       id="path3" />
  </g>
  <path
     d="M 444.00,1.00 L 444.00,61.00 L 482.00,61.00 L 481.00,49.00 L 457.00,49.00 L 455.00,38.00 L 457.00,36.00 L 477.00,36.00 L 477.00,25.00 L 457.00,25.00 L 456.00,14.00 L 482.00,13.00 L 482.00,1.00 Z M 384.00,1.00 L 384.00,61.00 L 396.00,61.00 L 397.00,23.00 L 408.00,39.00 L 418.00,24.00 L 421.00,24.00 L 421.00,61.00 L 433.00,61.00 L 433.00,1.00 L 422.00,1.00 L 408.00,19.00 L 394.00,1.00 Z M 333.00,1.00 L 335.00,4.00 L 333.00,7.00 L 333.00,61.00 L 345.00,61.00 L 346.00,39.00 L 361.00,39.00 L 362.00,61.00 L 374.00,61.00 L 374.00,8.00 L 367.00,1.00 Z M 345.00,14.00 L 360.00,13.00 L 362.00,15.00 L 362.00,27.00 L 346.00,28.00 Z M 279.00,1.00 L 279.00,61.00 L 291.00,61.00 L 292.00,13.00 L 310.00,14.00 L 311.00,25.00 L 309.00,28.00 L 299.00,28.00 L 299.00,38.00 L 311.00,61.00 L 324.00,61.00 L 314.00,40.00 L 322.00,32.00 L 322.00,8.00 L 315.00,1.00 Z M 270.00,1.00 L 231.00,1.00 L 231.00,61.00 L 243.00,60.00 L 244.00,36.00 L 265.00,36.00 L 265.00,25.00 L 245.00,25.00 L 243.00,23.00 L 243.00,14.00 L 270.00,13.00 Z M 171.00,1.00 L 179.00,9.00 L 179.00,60.00 L 212.00,60.00 L 220.00,52.00 L 220.00,8.00 L 213.00,1.00 Z M 192.00,12.00 L 205.00,12.00 L 208.00,15.00 L 208.00,46.00 L 205.00,49.00 L 191.00,48.00 Z M 133.00,0.00 L 133.00,60.00 L 171.00,60.00 L 170.00,48.00 L 145.00,47.00 L 145.00,8.00 L 137.00,0.00 Z M 109.00,0.00 L 108.00,60.00 L 120.00,60.00 L 120.00,0.00 Z M 54.00,0.00 L 54.00,53.00 L 61.00,60.00 L 89.00,60.00 L 96.00,53.00 L 96.00,0.00 L 84.00,0.00 L 84.00,46.00 L 81.00,49.00 L 69.00,49.00 L 66.00,46.00 L 66.00,0.00 Z M 8.00,0.00 L 0.00,8.00 L 0.00,53.00 L 7.00,60.00 L 32.00,60.00 L 35.00,57.00 L 38.00,60.00 L 42.00,60.00 L 42.00,28.00 L 38.00,24.00 L 20.00,24.00 L 20.00,35.00 L 30.00,37.00 L 29.00,48.00 L 15.00,49.00 L 12.00,46.00 L 12.00,15.00 L 15.00,12.00 L 42.00,12.00 L 42.00,0.00 Z"
     fill="#0F1419"
     fill-rule="evenodd"
     transform="translate(220 62) scale(1.55)"
     id="path4" />
</svg>
