<svg xmlns="http://www.w3.org/2000/svg" xmlns:xlink="http://www.w3.org/1999/xlink" viewBox="0 0 256 256" width="256" height="256" role="img" aria-label="Guildframe badge Color">
<title>Guildframe badge Color</title>
<path d="M 40 16 H 216 L 240 40 V 216 L 216 240 H 40 L 16 216 V 40 Z" fill="#0F1419"/><g transform="translate(54 24) scale(0.85)"><path d="M153 0 L24 0 L0 24 L0 116 L32 143 L62 163 L77 178 L96 161 L95 58 L55 58 L55 87 L70 88 L71 124 L69 134 L35 110 L30 104 L30 33 L32 31 L173 31 L173 19 Z" fill="#F2F1ED"/><path d="M173 58 L106 58 L106 177 L86 193 L104 211 L131 191 L131 147 L161 128 L161 113 L131 112 L131 88 L133 86 L172 87 Z" fill="#F2F1ED"/></g><path d="M 128 204 L 142 218 L 128 232 L 114 218 Z" fill="#C69A2E"/>
</svg>